<svg width="14" height="14" viewBox="0 0 14 14" fill="none" xmlns="http://www.w3.org/2000/svg">
<path d="M7 1.12506C9.6925 1.12506 11.875 3.30756 11.875 6.00006C11.875 8.06006 10.4275 10.3051 7.57 12.7591C7.41111 12.8956 7.20853 12.9705 6.99906 12.9703C6.7896 12.9702 6.58715 12.8948 6.4285 12.7581L6.2395 12.5941C3.5085 10.2041 2.125 8.01406 2.125 6.00006C2.125 3.30756 4.3075 1.12506 7 1.12506ZM7 4.12506C6.50272 4.12506 6.02581 4.3226 5.67417 4.67424C5.32254 5.02587 5.125 5.50278 5.125 6.00006C5.125 6.49734 5.32254 6.97426 5.67417 7.32589C6.02581 7.67752 6.50272 7.87506 7 7.87506C7.49728 7.87506 7.9742 7.67752 8.32583 7.32589C8.67746 6.97426 8.875 6.49734 8.875 6.00006C8.875 5.50278 8.67746 5.02587 8.32583 4.67424C7.9742 4.3226 7.49728 4.12506 7 4.12506Z" fill="#002060"/>
</svg>
