<svg width="17" height="16" viewBox="0 0 17 16" fill="none" xmlns="http://www.w3.org/2000/svg">
<path fill-rule="evenodd" clip-rule="evenodd" d="M9.96814 1.86601C9.96814 2.87801 9.53114 5.92701 8.99214 5.92701C8.45514 5.92701 8.01514 2.87801 8.01514 1.86601C8.01514 0.852006 8.45414 0.0310059 8.99214 0.0310059C9.53114 0.0310059 9.96814 0.853006 9.96814 1.86601Z" fill="#BEBEBE"/>
<path fill-rule="evenodd" clip-rule="evenodd" d="M8.01611 14.088C8.01611 13.082 8.45411 10.057 8.99311 10.057C9.53111 10.057 9.96811 13.082 9.96811 14.088C9.96811 15.092 9.53111 15.906 8.99311 15.906C8.45311 15.906 8.01611 15.092 8.01611 14.088Z" fill="#BEBEBE"/>
<path fill-rule="evenodd" clip-rule="evenodd" d="M2.859 7.03003C3.884 7.03003 6.972 7.46103 6.972 7.99103C6.972 8.52103 3.884 8.95003 2.859 8.95203C1.832 8.95003 1 8.52103 1 7.99103C1 7.46103 1.832 7.03103 2.859 7.03003Z" fill="#BEBEBE"/>
<path fill-rule="evenodd" clip-rule="evenodd" d="M15.1228 8.982C14.1018 8.982 11.0308 8.542 11.0308 7.999C11.0308 7.456 14.1008 7.016 15.1228 7.016C16.1418 7.014 16.9688 7.456 16.9688 7.999C16.9688 8.542 16.1418 8.982 15.1228 8.982Z" fill="#BEBEBE"/>
<path fill-rule="evenodd" clip-rule="evenodd" d="M14.1818 4.19305C13.4668 4.90805 11.0018 6.75505 10.6208 6.37505C10.2408 5.99405 12.0858 3.52705 12.8008 2.81305C13.5178 2.09605 14.4098 1.82705 14.7898 2.20605C15.1718 2.58805 14.8978 3.47705 14.1818 4.19305Z" fill="#BEBEBE"/>
<path fill-rule="evenodd" clip-rule="evenodd" d="M3.81605 11.846C4.52705 11.134 6.97605 9.30402 7.35705 9.68602C7.73805 10.066 5.90705 12.514 5.19505 13.225C4.48605 13.935 3.60105 14.202 3.22005 13.822C2.84005 13.439 3.10605 12.555 3.81605 11.846Z" fill="#BEBEBE"/>
<path fill-rule="evenodd" clip-rule="evenodd" d="M5.17584 2.81801C5.90184 3.54301 7.77984 6.03101 7.40484 6.40601C7.02984 6.78101 4.54384 4.90001 3.81684 4.17701C3.09084 3.44901 2.80584 2.55801 3.18084 2.18301C3.55584 1.80801 4.44884 2.09201 5.17584 2.81801Z" fill="#BEBEBE"/>
<path fill-rule="evenodd" clip-rule="evenodd" d="M12.8117 13.198C12.0887 12.476 10.2297 9.99299 10.6137 9.60899C10.9977 9.22399 13.4807 11.085 14.2017 11.807C14.9247 12.526 15.1957 13.423 14.8117 13.808C14.4277 14.191 13.5307 13.918 12.8117 13.198Z" fill="#BEBEBE"/>
</svg>
