<svg width="20" height="20" viewBox="0 0 20 20" fill="none" xmlns="http://www.w3.org/2000/svg">
<g id="ant-design:star-filled">
<path id="Vector" d="M17.7364 6.89631L12.7774 6.17561L10.5606 1.68146C10.5001 1.55842 10.4005 1.45881 10.2774 1.39826C9.96882 1.24592 9.59382 1.37287 9.43952 1.68146L7.22272 6.17561L2.26374 6.89631C2.12702 6.91584 2.00202 6.98029 1.90632 7.07795C1.79062 7.19687 1.72686 7.35686 1.72906 7.52276C1.73126 7.68866 1.79923 7.8469 1.91804 7.96272L5.50593 11.4608L4.65827 16.4002C4.63839 16.5151 4.65111 16.6333 4.69497 16.7413C4.73884 16.8494 4.8121 16.943 4.90645 17.0115C5.0008 17.08 5.11246 17.1207 5.22878 17.129C5.34509 17.1373 5.4614 17.1129 5.56452 17.0584L10.0001 14.7264L14.4356 17.0584C14.5567 17.1229 14.6973 17.1444 14.8321 17.1209C15.1719 17.0623 15.4005 16.7401 15.3419 16.4002L14.4942 11.4608L18.0821 7.96272C18.1798 7.86701 18.2442 7.74201 18.2637 7.60529C18.3165 7.2635 18.0782 6.94709 17.7364 6.89631Z" fill="#FFEA00"/>
</g>
</svg>
